<svg width="125" height="146" viewBox="0 0 125 146" fill="none" xmlns="http://www.w3.org/2000/svg">
<rect x="4" y="4" width="58" height="58" rx="16.5" fill="white" stroke="black" stroke-width="8"/>
<rect x="35.101" y="58.1125" width="58" height="58" rx="16.5" transform="rotate(-15 35.101 58.1125)" fill="#B6C26F" stroke="black" stroke-width="8"/>
<path d="M71.5408 84.2163C71.8306 84.1387 72.0079 84.2206 72.0726 84.4621L72.7002 86.8044C72.7261 86.901 72.7117 87.0084 72.6571 87.1266C72.6143 87.2243 72.5043 87.2969 72.3272 87.3444L62.7887 89.9002C62.4828 89.9822 62.2932 89.8863 62.2199 89.6126L61.5923 87.2702C61.5276 87.0288 61.6321 86.8714 61.9057 86.798L64.4171 86.1251C64.5942 86.0776 64.6677 85.9976 64.6375 85.8849L61.9199 75.7427C61.8552 75.5012 61.7188 75.4428 61.5106 75.5676L59.3559 76.8955C59.0233 77.0709 58.8052 76.9655 58.7017 76.5791L58.2746 74.9853C58.2272 74.8082 58.219 74.681 58.25 74.6037C58.2811 74.5263 58.3583 74.428 58.4816 74.3087L61.9773 71.2238C62.1725 71.0507 62.3301 70.9309 62.4503 70.8641C62.5661 70.7813 62.7207 70.7141 62.9138 70.6623L64.5801 70.2158C64.8216 70.1511 64.9811 70.2637 65.0588 70.5534L68.844 84.6801C68.8871 84.8411 68.9811 84.9022 69.126 84.8633L71.5408 84.2163ZM80.131 79.3005C80.2259 79.6547 80.064 79.8878 79.6455 80L73.9707 81.5206C73.7775 81.5723 73.632 81.5768 73.5343 81.534C73.4483 81.4707 73.3816 81.3506 73.3341 81.1735L72.8618 79.4107C72.7841 79.1209 72.8661 78.9436 73.1075 78.8789L79.1929 77.2484C79.4344 77.1837 79.5875 77.2721 79.6522 77.5135L80.131 79.3005Z" fill="black"/>
<path d="M34.325 41.4C34.325 41.8 34.1 42 33.65 42H30.675C30.475 42 30.3333 41.9583 30.25 41.875C30.1833 41.7917 30.15 41.6583 30.15 41.475V38.375C30.15 38.075 30.2833 37.925 30.55 37.925H33.975C34.2083 37.925 34.325 38.0583 34.325 38.325V41.4ZM26.425 27.55C26.2917 27.5167 26.2167 27.4417 26.2 27.325C26.1833 27.2083 26.1917 27.1 26.225 27C26.7583 25.7833 27.575 24.85 28.675 24.2C29.775 23.5333 31.0833 23.2 32.6 23.2C33.85 23.2 34.925 23.4 35.825 23.8C36.7417 24.1833 37.45 24.7083 37.95 25.375C38.4667 26.025 38.725 26.7583 38.725 27.575C38.725 28.3583 38.5583 29.025 38.225 29.575C37.8917 30.125 37.4833 30.6167 37 31.05C36.5167 31.4833 36.025 31.9167 35.525 32.35C35.0417 32.7667 34.6333 33.2333 34.3 33.75C33.9667 34.2667 33.8 34.9 33.8 35.65C33.8 35.7833 33.75 35.9 33.65 36C33.5667 36.0833 33.45 36.125 33.3 36.125H31.25C30.9 36.125 30.725 35.9333 30.725 35.55C30.725 34.6667 30.8667 33.9083 31.15 33.275C31.4333 32.6417 31.7833 32.0917 32.2 31.625C32.6167 31.1417 33.025 30.7 33.425 30.3C33.8417 29.9 34.1917 29.5 34.475 29.1C34.775 28.7 34.925 28.2583 34.925 27.775C34.925 27.175 34.7 26.7 34.25 26.35C33.8 26 33.2417 25.825 32.575 25.825C32.1417 25.825 31.7167 25.9083 31.3 26.075C30.8833 26.2417 30.5167 26.4833 30.2 26.8C29.8833 27.1167 29.6333 27.4833 29.45 27.9C29.3833 28.0333 29.3167 28.1167 29.25 28.15C29.1833 28.1667 29.075 28.1667 28.925 28.15L26.425 27.55Z" fill="black"/>
<path d="M79.7319 89.5656C81.6943 79.5999 94.25 76.2355 100.932 83.885L117.387 102.721C123.07 109.227 120.358 119.27 112.493 122.202L113.602 126.339C115.349 132.86 111.479 139.563 104.958 141.311C98.4367 143.058 91.7339 139.187 89.9866 132.666L88.8783 128.53C80.6011 129.923 73.2312 122.582 74.9001 114.105L79.7319 89.5656Z" fill="white" stroke="black" stroke-width="8"/>
</svg>
