<svg width="375" height="177" viewBox="0 0 375 177" fill="none" xmlns="http://www.w3.org/2000/svg">
<rect x="254" y="4" width="58" height="58" rx="16.5" fill="white" stroke="black" stroke-width="8"/>
<rect x="285.101" y="58.1125" width="58" height="58" rx="16.5" transform="rotate(-15 285.101 58.1125)" fill="#B6C26F" stroke="black" stroke-width="8"/>
<mask id="path-3-outside-1_1_31" maskUnits="userSpaceOnUse" x="0" y="30" width="266" height="147" fill="black">
<rect fill="white" y="30" width="266" height="147"/>
<path d="M8 63C8 49.1929 19.1929 38 33 38H83C96.8071 38 108 49.1929 108 63V113C108 126.807 96.8071 138 83 138H33C19.1929 138 8 126.807 8 113V63Z"/>
<path d="M72.8 69.9C73.2333 69.9 73.45 70.15 73.45 70.65V106.2C73.45 106.433 73.3667 106.633 73.2 106.8C73.0333 106.933 72.8 107 72.5 107H67.45C67.1833 107 66.9667 106.967 66.8 106.9C66.6333 106.833 66.4333 106.667 66.2 106.4L50.25 84C50.1167 83.8333 49.9833 83.7667 49.85 83.8C49.75 83.8333 49.7 83.9333 49.7 84.1V106.1C49.7333 106.7 49.4 107 48.7 107H43.5C42.8333 107 42.5 106.717 42.5 106.15V70.85C42.5 70.2167 42.8 69.9 43.4 69.9H49.45C49.8167 69.9 50.0833 69.95 50.25 70.05C50.45 70.15 50.6667 70.35 50.9 70.65L65.6 91.6C65.8 91.8667 65.9667 91.9833 66.1 91.95C66.2667 91.9167 66.35 91.75 66.35 91.45V70.8C66.35 70.2 66.65 69.9 67.25 69.9H72.8Z"/>
<path d="M108 63C108 49.1929 119.193 38 133 38H183C196.807 38 208 49.1929 208 63V113C208 126.807 196.807 138 183 138H133C119.193 138 108 126.807 108 113V63Z"/>
<path d="M208 131.5C208 124.596 213.596 119 220.5 119H245.5C252.404 119 258 124.596 258 131.5V156.5C258 163.404 252.404 169 245.5 169H220.5C213.596 169 208 163.404 208 156.5V131.5Z"/>
<path d="M158.4 107.5C154.867 107.5 151.817 106.75 149.25 105.25C146.683 103.717 144.7 101.533 143.3 98.7C141.933 95.8667 141.25 92.5 141.25 88.6C141.25 84.6333 141.95 81.2167 143.35 78.35C144.783 75.4833 146.783 73.2833 149.35 71.75C151.917 70.1833 154.933 69.4 158.4 69.4C161.867 69.4 164.867 70.1833 167.4 71.75C169.967 73.2833 171.95 75.4833 173.35 78.35C174.75 81.1833 175.45 84.5833 175.45 88.55C175.45 92.45 174.75 95.8167 173.35 98.65C171.983 101.483 170.017 103.667 167.45 105.2C164.883 106.733 161.867 107.5 158.4 107.5ZM158.4 101.35C161.133 101.35 163.133 100.367 164.4 98.4C165.667 96.4 166.3 93.15 166.3 88.65C166.3 84.05 165.65 80.7167 164.35 78.65C163.083 76.55 161.1 75.5 158.4 75.5C155.667 75.5 153.65 76.55 152.35 78.65C151.05 80.75 150.4 84.0833 150.4 88.65C150.4 93.1167 151.033 96.35 152.3 98.35C153.6 100.35 155.633 101.35 158.4 101.35Z"/>
<path d="M225.625 137.35C225.492 137.2 225.492 137.017 225.625 136.8C226.075 136.267 226.642 135.808 227.325 135.425C228.008 135.025 228.758 134.725 229.575 134.525C230.392 134.308 231.233 134.2 232.1 134.2C233.567 134.2 234.817 134.408 235.85 134.825C236.9 135.225 237.7 135.792 238.25 136.525C238.817 137.242 239.1 138.083 239.1 139.05C239.1 139.833 238.85 140.592 238.35 141.325C237.85 142.042 237.117 142.55 236.15 142.85C235.967 142.917 235.867 143 235.85 143.1C235.85 143.183 235.942 143.25 236.125 143.3C236.825 143.517 237.442 143.842 237.975 144.275C238.508 144.692 238.925 145.183 239.225 145.75C239.525 146.317 239.675 146.942 239.675 147.625C239.675 148.808 239.383 149.825 238.8 150.675C238.217 151.508 237.342 152.15 236.175 152.6C235.008 153.033 233.55 153.25 231.8 153.25C230.85 153.25 229.933 153.125 229.05 152.875C228.167 152.625 227.367 152.267 226.65 151.8C225.933 151.333 225.342 150.783 224.875 150.15C224.775 150.017 224.742 149.892 224.775 149.775C224.808 149.642 224.892 149.525 225.025 149.425L226.975 148.05C227.108 147.95 227.217 147.908 227.3 147.925C227.4 147.925 227.475 147.958 227.525 148.025C228.042 148.542 228.525 148.958 228.975 149.275C229.425 149.575 229.892 149.8 230.375 149.95C230.875 150.1 231.433 150.175 232.05 150.175C233.1 150.175 233.917 149.95 234.5 149.5C235.083 149.05 235.375 148.458 235.375 147.725C235.375 147.158 235.217 146.675 234.9 146.275C234.583 145.875 234.158 145.567 233.625 145.35C233.108 145.133 232.533 145.025 231.9 145.025L229.75 144.975C229.467 144.975 229.325 144.858 229.325 144.625V142.275C229.325 142.075 229.467 141.958 229.75 141.925L231.475 141.85C232.142 141.833 232.725 141.717 233.225 141.5C233.725 141.267 234.117 140.967 234.4 140.6C234.683 140.217 234.825 139.792 234.825 139.325C234.825 138.925 234.7 138.567 234.45 138.25C234.217 137.933 233.892 137.683 233.475 137.5C233.058 137.3 232.583 137.2 232.05 137.2C231.283 137.2 230.583 137.35 229.95 137.65C229.317 137.933 228.667 138.4 228 139.05C227.9 139.15 227.808 139.208 227.725 139.225C227.658 139.225 227.567 139.167 227.45 139.05L225.625 137.35Z"/>
</mask>
<path d="M8 63C8 49.1929 19.1929 38 33 38H83C96.8071 38 108 49.1929 108 63V113C108 126.807 96.8071 138 83 138H33C19.1929 138 8 126.807 8 113V63Z" fill="#B6C26F"/>
<path d="M72.8 69.9C73.2333 69.9 73.45 70.15 73.45 70.65V106.2C73.45 106.433 73.3667 106.633 73.2 106.8C73.0333 106.933 72.8 107 72.5 107H67.45C67.1833 107 66.9667 106.967 66.8 106.9C66.6333 106.833 66.4333 106.667 66.2 106.4L50.25 84C50.1167 83.8333 49.9833 83.7667 49.85 83.8C49.75 83.8333 49.7 83.9333 49.7 84.1V106.1C49.7333 106.7 49.4 107 48.7 107H43.5C42.8333 107 42.5 106.717 42.5 106.15V70.85C42.5 70.2167 42.8 69.9 43.4 69.9H49.45C49.8167 69.9 50.0833 69.95 50.25 70.05C50.45 70.15 50.6667 70.35 50.9 70.65L65.6 91.6C65.8 91.8667 65.9667 91.9833 66.1 91.95C66.2667 91.9167 66.35 91.75 66.35 91.45V70.8C66.35 70.2 66.65 69.9 67.25 69.9H72.8Z" fill="black"/>
<path d="M108 63C108 49.1929 119.193 38 133 38H183C196.807 38 208 49.1929 208 63V113C208 126.807 196.807 138 183 138H133C119.193 138 108 126.807 108 113V63Z" fill="#B6C26F"/>
<path d="M208 131.5C208 124.596 213.596 119 220.5 119H245.5C252.404 119 258 124.596 258 131.5V156.5C258 163.404 252.404 169 245.5 169H220.5C213.596 169 208 163.404 208 156.5V131.5Z" fill="#B6C26F"/>
<path d="M158.4 107.5C154.867 107.5 151.817 106.75 149.25 105.25C146.683 103.717 144.7 101.533 143.3 98.7C141.933 95.8667 141.25 92.5 141.25 88.6C141.25 84.6333 141.95 81.2167 143.35 78.35C144.783 75.4833 146.783 73.2833 149.35 71.75C151.917 70.1833 154.933 69.4 158.4 69.4C161.867 69.4 164.867 70.1833 167.4 71.75C169.967 73.2833 171.95 75.4833 173.35 78.35C174.75 81.1833 175.45 84.5833 175.45 88.55C175.45 92.45 174.75 95.8167 173.35 98.65C171.983 101.483 170.017 103.667 167.45 105.2C164.883 106.733 161.867 107.5 158.4 107.5ZM158.4 101.35C161.133 101.35 163.133 100.367 164.4 98.4C165.667 96.4 166.3 93.15 166.3 88.65C166.3 84.05 165.65 80.7167 164.35 78.65C163.083 76.55 161.1 75.5 158.4 75.5C155.667 75.5 153.65 76.55 152.35 78.65C151.05 80.75 150.4 84.0833 150.4 88.65C150.4 93.1167 151.033 96.35 152.3 98.35C153.6 100.35 155.633 101.35 158.4 101.35Z" fill="black"/>
<path d="M225.625 137.35C225.492 137.2 225.492 137.017 225.625 136.8C226.075 136.267 226.642 135.808 227.325 135.425C228.008 135.025 228.758 134.725 229.575 134.525C230.392 134.308 231.233 134.2 232.1 134.2C233.567 134.2 234.817 134.408 235.85 134.825C236.9 135.225 237.7 135.792 238.25 136.525C238.817 137.242 239.1 138.083 239.1 139.05C239.1 139.833 238.85 140.592 238.35 141.325C237.85 142.042 237.117 142.55 236.15 142.85C235.967 142.917 235.867 143 235.85 143.1C235.85 143.183 235.942 143.25 236.125 143.3C236.825 143.517 237.442 143.842 237.975 144.275C238.508 144.692 238.925 145.183 239.225 145.75C239.525 146.317 239.675 146.942 239.675 147.625C239.675 148.808 239.383 149.825 238.8 150.675C238.217 151.508 237.342 152.15 236.175 152.6C235.008 153.033 233.55 153.25 231.8 153.25C230.85 153.25 229.933 153.125 229.05 152.875C228.167 152.625 227.367 152.267 226.65 151.8C225.933 151.333 225.342 150.783 224.875 150.15C224.775 150.017 224.742 149.892 224.775 149.775C224.808 149.642 224.892 149.525 225.025 149.425L226.975 148.05C227.108 147.95 227.217 147.908 227.3 147.925C227.4 147.925 227.475 147.958 227.525 148.025C228.042 148.542 228.525 148.958 228.975 149.275C229.425 149.575 229.892 149.8 230.375 149.95C230.875 150.1 231.433 150.175 232.05 150.175C233.1 150.175 233.917 149.95 234.5 149.5C235.083 149.05 235.375 148.458 235.375 147.725C235.375 147.158 235.217 146.675 234.9 146.275C234.583 145.875 234.158 145.567 233.625 145.35C233.108 145.133 232.533 145.025 231.9 145.025L229.75 144.975C229.467 144.975 229.325 144.858 229.325 144.625V142.275C229.325 142.075 229.467 141.958 229.75 141.925L231.475 141.85C232.142 141.833 232.725 141.717 233.225 141.5C233.725 141.267 234.117 140.967 234.4 140.6C234.683 140.217 234.825 139.792 234.825 139.325C234.825 138.925 234.7 138.567 234.45 138.25C234.217 137.933 233.892 137.683 233.475 137.5C233.058 137.3 232.583 137.2 232.05 137.2C231.283 137.2 230.583 137.35 229.95 137.65C229.317 137.933 228.667 138.4 228 139.05C227.9 139.15 227.808 139.208 227.725 139.225C227.658 139.225 227.567 139.167 227.45 139.05L225.625 137.35Z" fill="black"/>
<path d="M108 63H104V113H108H112V63H108ZM73.2 106.8L78.1976 113.047L78.5435 112.77L78.8569 112.457L73.2 106.8ZM66.8 106.9L69.7711 99.4722L69.7711 99.4722L66.8 106.9ZM66.2 106.4L59.6833 111.04L59.9156 111.367L60.1794 111.668L66.2 106.4ZM50.25 84L56.7667 79.3597L56.6369 79.1773L56.497 79.0025L50.25 84ZM49.85 83.8L47.9097 76.0389L47.6116 76.1134L47.3202 76.2105L49.85 83.8ZM49.7 106.1H41.7V106.322L41.7123 106.544L49.7 106.1ZM50.25 70.05L46.134 76.9099L46.3975 77.068L46.6723 77.2054L50.25 70.05ZM50.9 70.65L57.4487 66.055L57.3357 65.8938L57.2148 65.7385L50.9 70.65ZM65.6 91.6L59.0513 96.195L59.124 96.2987L59.2 96.4L65.6 91.6ZM66.1 91.95L64.5311 84.1053L64.3444 84.1427L64.1597 84.1889L66.1 91.95ZM149.25 105.25L145.147 112.118L145.18 112.138L145.213 112.157L149.25 105.25ZM143.3 98.7L136.094 102.176L136.111 102.21L136.128 102.244L143.3 98.7ZM143.35 78.35L136.195 74.7723L136.178 74.8057L136.161 74.8393L143.35 78.35ZM149.35 71.75L153.453 78.6178L153.486 78.5983L153.518 78.5784L149.35 71.75ZM167.4 71.75L163.192 78.554L163.244 78.5863L163.297 78.6178L167.4 71.75ZM173.35 78.35L166.161 81.8607L166.17 81.8773L166.178 81.8939L173.35 78.35ZM173.35 98.65L166.178 95.1061L166.161 95.1401L166.144 95.1744L173.35 98.65ZM167.45 105.2L163.347 98.3322V98.3322L167.45 105.2ZM164.4 98.4L171.126 102.732L171.142 102.706L171.159 102.68L164.4 98.4ZM164.35 78.65L157.5 82.7819L157.538 82.8461L157.578 82.9096L164.35 78.65ZM152.3 98.35L145.541 102.63L145.567 102.67L145.592 102.71L152.3 98.35ZM225.625 137.35L219.646 142.665L219.896 142.947L220.172 143.204L225.625 137.35ZM225.625 136.8L219.511 131.641L219.125 132.098L218.812 132.607L225.625 136.8ZM227.325 135.425L231.239 142.402L231.303 142.366L231.366 142.329L227.325 135.425ZM229.575 134.525L231.478 142.295L231.552 142.277L231.626 142.257L229.575 134.525ZM235.85 134.825L232.858 142.245L232.93 142.273L233.002 142.301L235.85 134.825ZM238.25 136.525L231.85 141.325L231.911 141.407L231.975 141.487L238.25 136.525ZM238.35 141.325L244.911 145.902L244.936 145.867L244.96 145.832L238.35 141.325ZM236.15 142.85L233.779 135.209L233.596 135.266L233.416 135.332L236.15 142.85ZM235.85 143.1L227.959 141.785L227.85 142.438V143.1H235.85ZM236.125 143.3L238.49 135.658L238.361 135.618L238.23 135.582L236.125 143.3ZM237.975 144.275L232.93 150.484L232.99 150.532L233.05 150.579L237.975 144.275ZM239.225 145.75L246.295 142.007V142.007L239.225 145.75ZM238.8 150.675L245.354 155.263L245.375 155.232L245.396 155.202L238.8 150.675ZM236.175 152.6L238.96 160.099L239.007 160.082L239.054 160.064L236.175 152.6ZM229.05 152.875L226.871 160.573V160.573L229.05 152.875ZM226.65 151.8L222.285 158.504V158.504L226.65 151.8ZM224.875 150.15L231.315 145.404L231.295 145.377L231.275 145.35L224.875 150.15ZM224.775 149.775L232.467 151.973L232.504 151.845L232.536 151.715L224.775 149.775ZM225.025 149.425L220.415 142.887L220.319 142.955L220.225 143.025L225.025 149.425ZM226.975 148.05L231.585 154.588L231.681 154.52L231.775 154.45L226.975 148.05ZM227.3 147.925L225.731 155.77L226.508 155.925H227.3V147.925ZM227.525 148.025L221.125 152.825L221.466 153.28L221.868 153.682L227.525 148.025ZM228.975 149.275L224.371 155.817L224.454 155.875L224.537 155.931L228.975 149.275ZM230.375 149.95L228.004 157.591L228.04 157.602L228.076 157.613L230.375 149.95ZM234.5 149.5L239.386 155.834V155.834L234.5 149.5ZM234.9 146.275L241.172 141.309V141.309L234.9 146.275ZM233.625 145.35L230.531 152.728L230.572 152.745L230.614 152.762L233.625 145.35ZM231.9 145.025L231.714 153.023L231.807 153.025H231.9V145.025ZM229.75 144.975L229.936 136.977L229.843 136.975H229.75V144.975ZM229.75 141.925L229.402 133.933L229.108 133.945L228.815 133.98L229.75 141.925ZM231.475 141.85L231.275 133.853L231.201 133.854L231.127 133.858L231.475 141.85ZM233.225 141.5L236.406 148.84L236.508 148.796L236.608 148.749L233.225 141.5ZM234.4 140.6L240.73 145.492L240.783 145.424L240.833 145.355L234.4 140.6ZM234.45 138.25L228.01 142.996L228.088 143.103L228.171 143.207L234.45 138.25ZM233.475 137.5L230.013 144.712L230.132 144.769L230.253 144.823L233.475 137.5ZM229.95 137.65L233.217 144.953L233.296 144.917L233.375 144.88L229.95 137.65ZM228 139.05L222.415 133.322L222.379 133.357L222.343 133.393L228 139.05ZM227.725 139.225V147.225H228.517L229.294 147.07L227.725 139.225ZM227.45 139.05L233.107 133.393L233.007 133.293L232.903 133.196L227.45 139.05ZM33 38V46H83V38V30H33V38ZM83 138V130H33V138V146H83V138ZM8 113H16V63H8H0V113H8ZM33 138V130C23.6112 130 16 122.389 16 113H8H0C0 131.225 14.7746 146 33 146V138ZM108 113H100C100 122.389 92.3888 130 83 130V138V146C101.225 146 116 131.225 116 113H108ZM83 38V46C92.3888 46 100 53.6112 100 63H108H116C116 44.7746 101.225 30 83 30V38ZM33 38V30C14.7746 30 0 44.7746 0 63H8H16C16 53.6112 23.6112 46 33 46V38ZM72.8 69.9V77.9C71.4615 77.9 69.0912 77.4607 67.242 75.3269C65.5824 73.412 65.45 71.3748 65.45 70.65H73.45H81.45C81.45 69.4252 81.2092 67.013 79.333 64.8481C77.2671 62.4643 74.5718 61.9 72.8 61.9V69.9ZM73.45 70.65H65.45V106.2H73.45H81.45V70.65H73.45ZM73.45 106.2H65.45C65.45 105.343 65.6079 104.396 66.0029 103.448C66.3972 102.502 66.9529 101.733 67.5431 101.143L73.2 106.8L78.8569 112.457C80.5067 110.807 81.45 108.579 81.45 106.2H73.45ZM73.2 106.8L68.2024 100.553C69.9315 99.1698 71.707 99 72.5 99V107V115C73.893 115 76.1351 114.697 78.1976 113.047L73.2 106.8ZM72.5 107V99H67.45V107V115H72.5V107ZM67.45 107V99C67.6401 99 67.9346 99.0112 68.3039 99.068C68.6699 99.1243 69.1817 99.2364 69.7711 99.4722L66.8 106.9L63.8289 114.328C65.2827 114.909 66.6139 115 67.45 115V107ZM66.8 106.9L69.7711 99.4722C70.7324 99.8567 71.365 100.345 71.6465 100.579C71.9602 100.841 72.1524 101.054 72.2206 101.132L66.2 106.4L60.1794 111.668C60.5854 112.132 61.8213 113.525 63.8289 114.328L66.8 106.9ZM66.2 106.4L72.7167 101.76L56.7667 79.3597L50.25 84L43.7333 88.6403L59.6833 111.04L66.2 106.4ZM50.25 84L56.497 79.0025C55.617 77.9025 52.588 74.8693 47.9097 76.0389L49.85 83.8L51.7903 91.5611C49.8419 92.0482 47.9578 91.7232 46.4723 90.9804C45.1567 90.3226 44.3701 89.4563 44.003 88.9975L50.25 84ZM49.85 83.8L47.3202 76.2105C42.1787 77.9243 41.7 82.8318 41.7 84.1H49.7H57.7C57.7 84.6993 57.6286 86.0062 56.8929 87.4777C56.033 89.1976 54.4743 90.6913 52.3798 91.3895L49.85 83.8ZM49.7 84.1H41.7V106.1H49.7H57.7V84.1H49.7ZM49.7 106.1L41.7123 106.544C41.6434 105.304 41.9228 102.809 44.1233 100.829C46.0591 99.0864 48.1352 99 48.7 99V107V115C49.9648 115 52.5576 114.764 54.8267 112.721C57.3605 110.441 57.7899 107.496 57.6877 105.656L49.7 106.1ZM48.7 107V99H43.5V107V115H48.7V107ZM43.5 107V99C44.1108 99 46.061 99.1023 47.9312 100.692C50.0504 102.493 50.5 104.829 50.5 106.15H42.5H34.5C34.5 108.037 35.1163 110.798 37.5688 112.883C39.7724 114.756 42.2225 115 43.5 115V107ZM42.5 106.15H50.5V70.85H42.5H34.5V106.15H42.5ZM42.5 70.85H50.5C50.5 71.6619 50.3156 73.7575 48.5326 75.6395C46.6729 77.6025 44.4469 77.9 43.4 77.9V69.9V61.9C41.7531 61.9 39.0771 62.3558 36.9174 64.6355C34.8344 66.8342 34.5 69.4048 34.5 70.85H42.5ZM43.4 69.9V77.9H49.45V69.9V61.9H43.4V69.9ZM49.45 69.9V77.9C49.2986 77.9 48.9388 77.892 48.4507 77.8005C47.9926 77.7146 47.1174 77.5 46.134 76.9099L50.25 70.05L54.366 63.1901C52.2749 61.9354 50.1847 61.9 49.45 61.9V69.9ZM50.25 70.05L46.6723 77.2054C45.9243 76.8314 45.4161 76.4118 45.1363 76.1534C44.8458 75.8853 44.6651 75.6643 44.5852 75.5615L50.9 70.65L57.2148 65.7385C56.6932 65.0678 55.5959 63.7787 53.8277 62.8946L50.25 70.05ZM50.9 70.65L44.3513 75.245L59.0513 96.195L65.6 91.6L72.1487 87.005L57.4487 66.055L50.9 70.65ZM65.6 91.6L59.2 96.4C59.5272 96.8363 60.2107 97.6878 61.2873 98.4414C62.3427 99.1801 64.8218 100.516 68.0403 99.7111L66.1 91.95L64.1597 84.1889C67.2449 83.4176 69.5739 84.7115 70.4627 85.3336C71.3726 85.9706 71.8728 86.6304 72 86.8L65.6 91.6ZM66.1 91.95L67.6689 99.7946C70.4286 99.2427 72.4192 97.4251 73.4429 95.3777C74.2785 93.7066 74.35 92.1677 74.35 91.45H66.35H58.35C58.35 91.0323 58.3799 89.7267 59.1321 88.2223C60.0725 86.3416 61.9381 84.6239 64.5311 84.1053L66.1 91.95ZM66.35 91.45H74.35V70.8H66.35H58.35V91.45H66.35ZM66.35 70.8H74.35C74.35 71.7332 74.1113 73.9024 72.2319 75.7818C70.3524 77.6613 68.1832 77.9 67.25 77.9V69.9V61.9C65.7168 61.9 63.0976 62.2887 60.9181 64.4682C58.7387 66.6476 58.35 69.2668 58.35 70.8H66.35ZM67.25 69.9V77.9H72.8V69.9V61.9H67.25V69.9ZM133 38V46H183V38V30H133V38ZM208 63H200V113H208H216V63H208ZM183 138V130H133V138V146H183V138ZM133 138V130C123.611 130 116 122.389 116 113H108H100C100 131.225 114.775 146 133 146V138ZM208 113H200C200 122.389 192.389 130 183 130V138V146C201.225 146 216 131.225 216 113H208ZM183 38V46C192.389 46 200 53.6112 200 63H208H216C216 44.7746 201.225 30 183 30V38ZM133 38V30C114.775 30 100 44.7746 100 63H108H116C116 53.6112 123.611 46 133 46V38ZM220.5 119V127H245.5V119V111H220.5V119ZM258 131.5H250V156.5H258H266V131.5H258ZM245.5 169V161H220.5V169V177H245.5V169ZM208 156.5H216V131.5H208H200V156.5H208ZM220.5 169V161C218.015 161 216 158.985 216 156.5H208H200C200 167.822 209.178 177 220.5 177V169ZM258 156.5H250C250 158.985 247.985 161 245.5 161V169V177C256.822 177 266 167.822 266 156.5H258ZM245.5 119V127C247.985 127 250 129.015 250 131.5H258H266C266 120.178 256.822 111 245.5 111V119ZM220.5 119V111C209.178 111 200 120.178 200 131.5H208H216C216 129.015 218.015 127 220.5 127V119ZM158.4 107.5V99.5C156.016 99.5 154.415 99.0028 153.287 98.343L149.25 105.25L145.213 112.157C149.218 114.497 153.717 115.5 158.4 115.5V107.5ZM149.25 105.25L153.353 98.3822C152.185 97.6844 151.231 96.6918 150.472 95.1561L143.3 98.7L136.128 102.244C138.169 106.375 141.182 109.749 145.147 112.118L149.25 105.25ZM143.3 98.7L150.506 95.2244C149.772 93.7033 149.25 91.5784 149.25 88.6H141.25H133.25C133.25 93.4216 134.095 98.0301 136.094 102.176L143.3 98.7ZM141.25 88.6H149.25C149.25 85.5607 149.786 83.4008 150.539 81.8607L143.35 78.35L136.161 74.8393C134.114 79.0325 133.25 83.7059 133.25 88.6H141.25ZM143.35 78.35L150.505 81.9277C151.307 80.3239 152.292 79.3113 153.453 78.6178L149.35 71.75L145.247 64.8822C141.275 67.2554 138.259 70.6428 136.195 74.7723L143.35 78.35ZM149.35 71.75L153.518 78.5784C154.647 77.8891 156.175 77.4 158.4 77.4V69.4V61.4C153.692 61.4 149.186 62.4776 145.182 64.9216L149.35 71.75ZM158.4 69.4V77.4C160.628 77.4 162.118 77.8899 163.192 78.554L167.4 71.75L171.608 64.946C167.615 62.4767 163.105 61.4 158.4 61.4V69.4ZM167.4 71.75L163.297 78.6178C164.441 79.301 165.395 80.2907 166.161 81.8607L173.35 78.35L180.539 74.8393C178.505 70.6759 175.493 67.2657 171.503 64.8822L167.4 71.75ZM173.35 78.35L166.178 81.8939C166.912 83.3805 167.45 85.5068 167.45 88.55H175.45H183.45C183.45 83.6599 182.588 78.9862 180.522 74.8061L173.35 78.35ZM175.45 88.55H167.45C167.45 91.5028 166.921 93.6024 166.178 95.1061L173.35 98.65L180.522 102.194C182.579 98.0309 183.45 93.3972 183.45 88.55H175.45ZM173.35 98.65L166.144 95.1744C165.421 96.6752 164.498 97.6447 163.347 98.3322L167.45 105.2L171.553 112.068C175.535 109.689 178.546 106.291 180.556 102.126L173.35 98.65ZM167.45 105.2L163.347 98.3322C162.207 99.0132 160.656 99.5 158.4 99.5V107.5V115.5C163.078 115.5 167.559 114.453 171.553 112.068L167.45 105.2ZM158.4 101.35V109.35C163.319 109.35 168.119 107.401 171.126 102.732L164.4 98.4L157.674 94.0682C157.716 94.0041 157.804 93.886 157.951 93.7533C158.1 93.6189 158.264 93.5104 158.42 93.4333C158.739 93.2765 158.815 93.35 158.4 93.35V101.35ZM164.4 98.4L171.159 102.68C173.687 98.6888 174.3 93.515 174.3 88.65H166.3H158.3C158.3 90.5558 158.163 91.9542 157.973 92.9323C157.776 93.9413 157.576 94.2232 157.641 94.1196L164.4 98.4ZM166.3 88.65H174.3C174.3 83.6698 173.665 78.4337 171.122 74.3904L164.35 78.65L157.578 82.9096C157.541 82.8507 157.756 83.1815 157.96 84.2312C158.159 85.2519 158.3 86.6964 158.3 88.65H166.3ZM164.35 78.65L171.2 74.5181C168.318 69.7398 163.563 67.5 158.4 67.5V75.5V83.5C158.708 83.5 158.543 83.5556 158.169 83.3578C157.992 83.2638 157.83 83.1441 157.698 83.0164C157.569 82.8919 157.51 82.7985 157.5 82.7819L164.35 78.65ZM158.4 75.5V67.5C153.249 67.5 148.483 69.6981 145.548 74.4392L152.35 78.65L159.152 82.8608C159.145 82.8728 159.089 82.958 158.969 83.0726C158.845 83.19 158.694 83.2989 158.532 83.3833C158.191 83.561 158.062 83.5 158.4 83.5V75.5ZM152.35 78.65L145.548 74.4392C143.045 78.4821 142.4 83.6717 142.4 88.65H150.4H158.4C158.4 86.7173 158.54 85.28 158.74 84.2562C158.944 83.2074 159.163 82.8433 159.152 82.8608L152.35 78.65ZM150.4 88.65H142.4C142.4 93.4956 143.017 98.645 145.541 102.63L152.3 98.35L159.059 94.0696C159.12 94.1668 158.921 93.8839 158.726 92.8872C158.536 91.9195 158.4 90.5359 158.4 88.65H150.4ZM152.3 98.35L145.592 102.71C148.624 107.373 153.431 109.35 158.4 109.35V101.35V93.35C157.975 93.35 158.033 93.2747 158.331 93.4212C158.476 93.4928 158.628 93.5932 158.764 93.7162C158.899 93.8373 158.976 93.9416 159.008 93.9901L152.3 98.35ZM225.625 137.35L231.604 132.035C232.706 133.275 233.525 135.041 233.525 137.1C233.525 138.956 232.859 140.309 232.438 140.993L225.625 136.8L218.812 132.607C218.258 133.508 217.525 135.06 217.525 137.1C217.525 139.343 218.411 141.275 219.646 142.665L225.625 137.35ZM225.625 136.8L231.739 141.959C231.5 142.243 231.29 142.373 231.239 142.402L227.325 135.425L223.411 128.448C221.993 129.243 220.65 130.29 219.511 131.641L225.625 136.8ZM227.325 135.425L231.366 142.329C231.358 142.334 231.358 142.333 231.371 142.328C231.385 142.322 231.418 142.31 231.478 142.295L229.575 134.525L227.672 126.755C226.151 127.127 224.674 127.707 223.284 128.521L227.325 135.425ZM229.575 134.525L231.626 142.257C231.757 142.223 231.908 142.2 232.1 142.2V134.2V126.2C230.559 126.2 229.027 126.394 227.524 126.793L229.575 134.525ZM232.1 134.2V142.2C232.46 142.2 232.693 142.226 232.822 142.247C232.95 142.269 232.949 142.281 232.858 142.245L235.85 134.825L238.842 127.405C236.609 126.505 234.284 126.2 232.1 126.2V134.2ZM235.85 134.825L233.002 142.301C232.959 142.284 232.393 142.049 231.85 141.325L238.25 136.525L244.65 131.725C243.007 129.535 240.841 128.166 238.698 127.349L235.85 134.825ZM238.25 136.525L231.975 141.487C231.704 141.144 231.466 140.723 231.306 140.246C231.147 139.775 231.1 139.358 231.1 139.05H239.1H247.1C247.1 136.395 246.277 133.778 244.525 131.563L238.25 136.525ZM239.1 139.05H231.1C231.1 138.017 231.459 137.23 231.74 136.818L238.35 141.325L244.96 145.832C246.241 143.953 247.1 141.649 247.1 139.05H239.1ZM238.35 141.325L231.789 136.748C232.094 136.31 232.47 135.945 232.867 135.669C233.254 135.401 233.586 135.269 233.779 135.209L236.15 142.85L238.521 150.491C240.905 149.751 243.237 148.301 244.911 145.902L238.35 141.325ZM236.15 142.85L233.416 135.332C232.957 135.499 228.761 136.974 227.959 141.785L235.85 143.1L243.741 144.415C243.354 146.74 242.053 148.28 241.059 149.108C240.138 149.876 239.272 150.227 238.884 150.368L236.15 142.85ZM235.85 143.1H227.85C227.85 146.558 229.904 148.73 231.213 149.682C232.398 150.544 233.538 150.887 234.02 151.018L236.125 143.3L238.23 135.582C238.528 135.663 239.531 135.948 240.624 136.743C241.841 137.628 243.85 139.726 243.85 143.1H235.85ZM236.125 143.3L233.76 150.942C233.549 150.877 233.242 150.737 232.93 150.484L237.975 144.275L243.02 138.066C241.642 136.946 240.101 136.156 238.49 135.658L236.125 143.3ZM237.975 144.275L233.05 150.579C232.746 150.342 232.411 149.976 232.155 149.493L239.225 145.75L246.295 142.007C245.439 140.39 244.271 139.041 242.9 137.971L237.975 144.275ZM239.225 145.75L232.155 149.493C231.804 148.831 231.675 148.158 231.675 147.625H239.675H247.675C247.675 145.725 247.246 143.802 246.295 142.007L239.225 145.75ZM239.675 147.625H231.675C231.675 147.558 231.684 147.357 231.766 147.069C231.852 146.772 231.996 146.451 232.204 146.148L238.8 150.675L245.396 155.202C247.024 152.829 247.675 150.178 247.675 147.625H239.675ZM238.8 150.675L232.246 146.087C232.765 145.346 233.322 145.126 233.296 145.136L236.175 152.6L239.054 160.064C241.361 159.174 243.668 157.67 245.354 155.263L238.8 150.675ZM236.175 152.6L233.39 145.101C233.396 145.098 232.955 145.25 231.8 145.25V153.25V161.25C234.145 161.25 236.62 160.969 238.96 160.099L236.175 152.6ZM231.8 153.25V145.25C231.561 145.25 231.379 145.22 231.229 145.177L229.05 152.875L226.871 160.573C228.488 161.03 230.139 161.25 231.8 161.25V153.25ZM229.05 152.875L231.229 145.177C231.142 145.153 231.088 145.131 231.058 145.118C231.028 145.104 231.016 145.097 231.015 145.096L226.65 151.8L222.285 158.504C223.724 159.441 225.27 160.119 226.871 160.573L229.05 152.875ZM226.65 151.8L231.015 145.096C231.019 145.098 231.057 145.124 231.116 145.178C231.175 145.233 231.245 145.309 231.315 145.404L224.875 150.15L218.435 154.896C219.518 156.365 220.835 157.56 222.285 158.504L226.65 151.8ZM224.875 150.15L231.275 145.35C232.076 146.418 233.356 148.861 232.467 151.973L224.775 149.775L217.083 147.577C216.127 150.923 217.474 153.616 218.475 154.95L224.875 150.15ZM224.775 149.775L232.536 151.715C232.035 153.721 230.838 155.065 229.825 155.825L225.025 149.425L220.225 143.025C218.945 143.985 217.582 145.562 217.014 147.835L224.775 149.775ZM225.025 149.425L229.635 155.963L231.585 154.588L226.975 148.05L222.365 141.512L220.415 142.887L225.025 149.425ZM226.975 148.05L231.775 154.45C231.485 154.668 230.89 155.079 230.028 155.411C229.168 155.741 227.626 156.149 225.731 155.77L227.3 147.925L228.869 140.08C225.174 139.341 222.57 141.354 222.175 141.65L226.975 148.05ZM227.3 147.925V155.925C226.47 155.925 225.365 155.786 224.182 155.26C222.952 154.714 221.906 153.866 221.125 152.825L227.525 148.025L233.925 143.225C232.054 140.73 229.352 139.925 227.3 139.925V147.925ZM227.525 148.025L221.868 153.682C222.611 154.425 223.446 155.167 224.371 155.817L228.975 149.275L233.579 142.733C233.599 142.747 233.572 142.729 233.498 142.666C233.426 142.603 233.32 142.507 233.182 142.368L227.525 148.025ZM228.975 149.275L224.537 155.931C225.582 156.628 226.74 157.198 228.004 157.591L230.375 149.95L232.746 142.309C233.044 142.402 233.268 142.522 233.413 142.619L228.975 149.275ZM230.375 149.95L228.076 157.613C229.443 158.023 230.792 158.175 232.05 158.175V150.175V142.175C232.075 142.175 232.307 142.177 232.674 142.287L230.375 149.95ZM232.05 150.175V158.175C234.137 158.175 236.917 157.739 239.386 155.834L234.5 149.5L229.614 143.166C230.258 142.669 230.881 142.416 231.325 142.294C231.751 142.176 232.021 142.175 232.05 142.175V150.175ZM234.5 149.5L239.386 155.834C241.923 153.878 243.375 150.952 243.375 147.725H235.375H227.375C227.375 147.004 227.526 146.104 227.981 145.182C228.435 144.26 229.053 143.598 229.614 143.166L234.5 149.5ZM235.375 147.725H243.375C243.375 145.567 242.732 143.28 241.172 141.309L234.9 146.275L228.628 151.241C227.701 150.07 227.375 148.749 227.375 147.725H235.375ZM234.9 146.275L241.172 141.309C239.893 139.693 238.282 138.607 236.636 137.938L233.625 145.35L230.614 152.762C230.034 152.526 229.274 152.057 228.628 151.241L234.9 146.275ZM233.625 145.35L236.719 137.972C235.103 137.295 233.458 137.025 231.9 137.025V145.025V153.025C231.609 153.025 231.114 152.972 230.531 152.728L233.625 145.35ZM231.9 145.025L232.086 137.027L229.936 136.977L229.75 144.975L229.564 152.973L231.714 153.023L231.9 145.025ZM229.75 144.975V136.975C230.505 136.975 232.558 137.099 234.517 138.712C236.773 140.57 237.325 143.055 237.325 144.625H229.325H221.325C221.325 146.429 221.947 149.088 224.346 151.063C226.446 152.793 228.712 152.975 229.75 152.975V144.975ZM229.325 144.625H237.325V142.275H229.325H221.325V144.625H229.325ZM229.325 142.275H237.325C237.325 144.321 236.472 146.603 234.517 148.213C232.915 149.532 231.288 149.799 230.685 149.87L229.75 141.925L228.815 133.98C227.928 134.084 226.089 134.426 224.346 135.862C222.249 137.589 221.325 140.029 221.325 142.275H229.325ZM229.75 141.925L230.098 149.917L231.823 149.842L231.475 141.85L231.127 133.858L229.402 133.933L229.75 141.925ZM231.475 141.85L231.675 149.847C233.145 149.811 234.778 149.546 236.406 148.84L233.225 141.5L230.044 134.16C230.672 133.888 231.138 133.856 231.275 133.853L231.475 141.85ZM233.225 141.5L236.608 148.749C238.045 148.079 239.531 147.043 240.73 145.492L234.4 140.6L228.07 135.708C228.702 134.89 229.405 134.455 229.842 134.251L233.225 141.5ZM234.4 140.6L240.833 145.355C242.111 143.627 242.825 141.543 242.825 139.325H234.825H226.825C226.825 138.041 227.256 136.806 227.967 135.845L234.4 140.6ZM234.825 139.325H242.825C242.825 137.109 242.083 135.008 240.729 133.293L234.45 138.25L228.171 143.207C227.317 142.125 226.825 140.741 226.825 139.325H234.825ZM234.45 138.25L240.89 133.504C239.705 131.896 238.19 130.834 236.697 130.177L233.475 137.5L230.253 144.823C229.594 144.532 228.728 143.971 228.01 142.996L234.45 138.25ZM233.475 137.5L236.937 130.288C235.285 129.495 233.597 129.2 232.05 129.2V137.2V145.2C231.569 145.2 230.831 145.105 230.013 144.712L233.475 137.5ZM232.05 137.2V129.2C230.212 129.2 228.327 129.567 226.525 130.42L229.95 137.65L233.375 144.88C232.84 145.133 232.355 145.2 232.05 145.2V137.2ZM229.95 137.65L226.683 130.347C224.952 131.122 223.54 132.226 222.415 133.322L228 139.05L233.585 144.778C233.677 144.688 233.701 144.677 233.653 144.711C233.605 144.745 233.461 144.844 233.217 144.953L229.95 137.65ZM228 139.05L222.343 133.393C222.59 133.147 222.993 132.781 223.561 132.419C224.127 132.059 225.001 131.611 226.156 131.38L227.725 139.225L229.294 147.07C231.646 146.599 233.107 145.257 233.657 144.707L228 139.05ZM227.725 139.225V131.225C229.893 131.225 231.393 132.109 231.901 132.432C232.531 132.833 232.941 133.228 233.107 133.393L227.45 139.05L221.793 144.707C222.075 144.989 222.59 145.471 223.312 145.931C223.911 146.312 225.49 147.225 227.725 147.225V139.225ZM227.45 139.05L232.903 133.196L231.078 131.496L225.625 137.35L220.172 143.204L221.997 144.904L227.45 139.05Z" fill="black" mask="url(#path-3-outside-1_1_31)"/>
<path d="M321.541 84.2163C321.831 84.1387 322.008 84.2206 322.073 84.4621L322.7 86.8044C322.726 86.901 322.712 87.0084 322.657 87.1266C322.614 87.2243 322.504 87.2969 322.327 87.3444L312.789 89.9002C312.483 89.9822 312.293 89.8863 312.22 89.6126L311.592 87.2702C311.528 87.0288 311.632 86.8714 311.906 86.798L314.417 86.1251C314.594 86.0776 314.668 85.9976 314.637 85.8849L311.92 75.7427C311.855 75.5012 311.719 75.4428 311.511 75.5676L309.356 76.8955C309.023 77.0709 308.805 76.9655 308.702 76.5791L308.275 74.9853C308.227 74.8082 308.219 74.681 308.25 74.6037C308.281 74.5263 308.358 74.428 308.482 74.3087L311.977 71.2238C312.172 71.0507 312.33 70.9309 312.45 70.8641C312.566 70.7813 312.721 70.7141 312.914 70.6623L314.58 70.2158C314.822 70.1511 314.981 70.2637 315.059 70.5534L318.844 84.6801C318.887 84.8411 318.981 84.9022 319.126 84.8633L321.541 84.2163ZM330.131 79.3005C330.226 79.6547 330.064 79.8878 329.645 80L323.971 81.5206C323.777 81.5723 323.632 81.5768 323.534 81.534C323.448 81.4707 323.382 81.3506 323.334 81.1735L322.862 79.4107C322.784 79.1209 322.866 78.9436 323.108 78.8789L329.193 77.2484C329.434 77.1837 329.587 77.2721 329.652 77.5135L330.131 79.3005Z" fill="black"/>
<path d="M284.325 41.4C284.325 41.8 284.1 42 283.65 42H280.675C280.475 42 280.333 41.9583 280.25 41.875C280.183 41.7917 280.15 41.6583 280.15 41.475V38.375C280.15 38.075 280.283 37.925 280.55 37.925H283.975C284.208 37.925 284.325 38.0583 284.325 38.325V41.4ZM276.425 27.55C276.292 27.5167 276.217 27.4417 276.2 27.325C276.183 27.2083 276.192 27.1 276.225 27C276.758 25.7833 277.575 24.85 278.675 24.2C279.775 23.5333 281.083 23.2 282.6 23.2C283.85 23.2 284.925 23.4 285.825 23.8C286.742 24.1833 287.45 24.7083 287.95 25.375C288.467 26.025 288.725 26.7583 288.725 27.575C288.725 28.3583 288.558 29.025 288.225 29.575C287.892 30.125 287.483 30.6167 287 31.05C286.517 31.4833 286.025 31.9167 285.525 32.35C285.042 32.7667 284.633 33.2333 284.3 33.75C283.967 34.2667 283.8 34.9 283.8 35.65C283.8 35.7833 283.75 35.9 283.65 36C283.567 36.0833 283.45 36.125 283.3 36.125H281.25C280.9 36.125 280.725 35.9333 280.725 35.55C280.725 34.6667 280.867 33.9083 281.15 33.275C281.433 32.6417 281.783 32.0917 282.2 31.625C282.617 31.1417 283.025 30.7 283.425 30.3C283.842 29.9 284.192 29.5 284.475 29.1C284.775 28.7 284.925 28.2583 284.925 27.775C284.925 27.175 284.7 26.7 284.25 26.35C283.8 26 283.242 25.825 282.575 25.825C282.142 25.825 281.717 25.9083 281.3 26.075C280.883 26.2417 280.517 26.4833 280.2 26.8C279.883 27.1167 279.633 27.4833 279.45 27.9C279.383 28.0333 279.317 28.1167 279.25 28.15C279.183 28.1667 279.075 28.1667 278.925 28.15L276.425 27.55Z" fill="black"/>
<path d="M329.732 89.5656C331.694 79.5999 344.25 76.2355 350.932 83.885L367.387 102.721C373.07 109.227 370.358 119.27 362.493 122.202L363.602 126.339C365.349 132.86 361.479 139.563 354.958 141.311C348.437 143.058 341.734 139.187 339.987 132.666L338.878 128.53C330.601 129.923 323.231 122.582 324.9 114.105L329.732 89.5656Z" fill="white" stroke="black" stroke-width="8"/>
</svg>
